<svg xmlns="http://www.w3.org/2000/svg" version="1.1" xmlns:xlink="http://www.w3.org/1999/xlink" width="512" height="512" x="0" y="0" viewBox="0 0 48 48" style="enable-background:new 0 0 512 512" xml:space="preserve" class=""><g><path fill="#9ba8ba" d="M47 11c0-1.105-.895-2-2-2H23c-1.105 0-2 .895-2 2v14h26zm0 0" opacity="1" data-original="#9ba8ba"></path><path fill="#cbd3db" d="M21 25v20c0 1.105.895 2 2 2h22c1.105 0 2-.895 2-2V25zm0 0" opacity="1" data-original="#cbd3db"></path><path fill="#fecd2a" d="M27 9v8a2.009 2.009 0 0 1-2 2h-8v6l-6-6H3a2.009 2.009 0 0 1-2-2V3a2.009 2.009 0 0 1 2-2h22a2.009 2.009 0 0 1 2 2zm-4-1a2 2 0 1 0-4 0h-4.41a5 5 0 1 0 0 4H19a2 2 0 1 0 2-2 2.009 2.009 0 0 0 2-2zm0 0" opacity="1" data-original="#fecd2a" class=""></path><path fill="#cbd3db" d="M21 6a2 2 0 1 1 0 4 2 2 0 1 1-2 2h-4.41a5.081 5.081 0 0 0 0-4H19a2.009 2.009 0 0 1 2-2zm0 0" opacity="1" data-original="#cbd3db"></path><path fill="#fd8c3c" d="M14.59 8a5.081 5.081 0 0 1 0 4 5 5 0 1 1 0-4zm0 0" opacity="1" data-original="#fd8c3c" class=""></path><g fill="#474c54"><path d="M45 8H30v2h15c.55 0 1 .45 1 1v34c0 .55-.45 1-1 1H23c-.55 0-1-.45-1-1V26h22v-2H22v-2h-2v23a3 3 0 0 0 3 3h22a3 3 0 0 0 3-3V11a3 3 0 0 0-3-3zm0 0" fill="#474c54" opacity="1" data-original="#474c54" class=""></path><path d="M27 30v-2h-2c-.55 0-1 .45-1 1v6c0 .55.45 1 1 1h2v-2h-1v-4zM28 17V3a3 3 0 0 0-3-3H3a3 3 0 0 0-3 3v14a3 3 0 0 0 3 3h7.586l5.707 5.707A1 1 0 0 0 18 25v-5h7a3 3 0 0 0 3-3zm-11 1c-.55 0-1 .45-1 1v3.586l-4.293-4.293A1 1 0 0 0 11 18H3c-.55 0-1-.45-1-1V3c0-.55.45-1 1-1h22c.55 0 1 .45 1 1v14c0 .55-.45 1-1 1zm0 0" fill="#474c54" opacity="1" data-original="#474c54" class=""></path><path d="M21 5c-1.27 0-2.402.8-2.828 2h-2.985a6.002 6.002 0 0 0-6.75-2.797 6.003 6.003 0 0 0 0 11.594A6.002 6.002 0 0 0 15.188 13h2.985a3.003 3.003 0 0 0 2.668 2 3.008 3.008 0 0 0 2.867-1.7 3.006 3.006 0 0 0-.473-3.3A2.999 2.999 0 0 0 21 5zm-7.328 6.602a4 4 0 1 1 0-3.21 4.092 4.092 0 0 1 0 3.21zM21 11c.55 0 1 .45 1 1s-.45 1-1 1-1-.45-1-1-.45-1-1-1h-3.09a5.55 5.55 0 0 0 0-2H19c.55 0 1-.45 1-1s.45-1 1-1 1 .45 1 1-.45 1-1 1-1 .45-1 1 .45 1 1 1zM42 20h2v2h-2zM38 20h2v2h-2zM42 16h2v2h-2zm0 0" fill="#474c54" opacity="1" data-original="#474c54" class=""></path></g></g></svg>