<svg xmlns="http://www.w3.org/2000/svg" version="1.1" xmlns:xlink="http://www.w3.org/1999/xlink" width="512" height="512" x="0" y="0" viewBox="0 0 64 64" style="enable-background:new 0 0 512 512" xml:space="preserve" class=""><g><g data-name="11-best price"><circle cx="43" cy="21" r="21" fill="#fae25c" opacity="1" data-original="#fae25c" class=""></circle><circle cx="43" cy="21" r="17" fill="#ffed83" opacity="1" data-original="#ffed83" class=""></circle><path fill="#d7986c" d="M44 18h-2a3 3 0 0 1 0-6h7a2 2 0 0 0 0-4h-4V4h-4v4.08A7 7 0 0 0 42 22h2a3 3 0 0 1 0 6h-7a2 2 0 0 0 0 4h4v4h4v-4.08A7 7 0 0 0 44 18z" opacity="1" data-original="#d7986c"></path><path fill="#fae25c" d="M17 13h-1v-1a1 1 0 0 0-2 0v1h-1a1 1 0 0 0 0 2h1v1a1 1 0 0 0 2 0v-1h1a1 1 0 0 0 0-2zM54 50h-1v-1a1 1 0 0 0-2 0v1h-1a1 1 0 0 0 0 2h1v1a1 1 0 0 0 2 0v-1h1a1 1 0 0 0 0-2z" opacity="1" data-original="#fae25c" class=""></path><path fill="#ffd2a6" d="M37 46h-1a3 3 0 0 1 0 6h-1a3 3 0 0 1 0 6h-1a3 3 0 0 1 0 6H17l-9-2V44c3 0 7-4 7-4l4-14s5 0 5 6l-1 8h14a3 3 0 0 1 0 6z" opacity="1" data-original="#ffd2a6"></path><path fill="#7bace6" d="M0 42h10v22H0z" opacity="1" data-original="#7bace6"></path></g></g></svg>