<svg xmlns="http://www.w3.org/2000/svg" version="1.1" xmlns:xlink="http://www.w3.org/1999/xlink" width="512" height="512" x="0" y="0" viewBox="0 0 64 64" style="enable-background:new 0 0 512 512" xml:space="preserve" class=""><g><path fill="#f26a07" d="M57.98 25.62c.48.97.7 2.04.51 3.1 0 0-.08.3-.22.85L45 27.21l-.39-.04.09-.9c.19-1.06.76-1.99 1.55-2.74 1.35-1.28 3.36-2.04 5.24-2.04.39 0 .78.03 1.15.1 2.19.38 4.35 2.01 5.34 4.03z" opacity="1" data-original="#f26a07"></path><path fill="#7aa822" d="M16.74 49.46c-1.57 1.36-3.81.16-5.03-1.06-.62.09-1.33.16-1.96.07-.95 2.83-.18 5.99 2.23 8.17.85.77 1.8 1.32 2.82 1.65-.03-.04-.06-.07-.09-.11-2.3-3.11.11-6.78 2.07-8.67zM7.92 33h9.66l1.17 4.73c-.01 0-.03-.01-.04-.01-.76-1.47-3.42-2.73-5.39-1.72-1.02.52-1.64 1.55-1.9 2.63h-.01c-1.39-.41-3.37-.25-4.41.78-1.42 1.42-1.14 4.06-.12 5.48-.82-.71-2.31-1.98-2.65-3.06-1.01-3.15 1.16-6.84 4.32-7.85-.28-.33-.49-.65-.63-.98z" opacity="1" data-original="#7aa822" class=""></path><g fill="#7aa822"><path d="m23.18 33-3.28 5.41c-.35-.3-.75-.56-1.15-.68L17.58 33z" fill="#7aa822" opacity="1" data-original="#7aa822" class=""></path><path d="M27.25 48.29c-2.12-2.37-5.54-1.64-7.86-.54l-.1-.2c1.96-1.01 1.59-3.46.83-4.93.53-.99 1.08-2.27.63-3.14-.18-.35-.49-.74-.85-1.06v-.01L23.18 33h8.34c-.13.3-.24.6-.32.92-.66 2.49-1.24 5-2.05 7.44-.73 2.18-1.41 4.68-1.89 6.92zM26.02 29.66c2.16-.38 4.62.59 6.11 2.16-.24.37-.45.76-.61 1.18H7.92c-.78-1.77.31-3.49 2.08-5-.53-2.14 1.25-4.07 5-5 2.49-.62 4.52-.48 5.76.31.64.4 1.06.97 1.24 1.69 2.69.61 4.63 1.96 4.02 4.66z" fill="#7aa822" opacity="1" data-original="#7aa822" class=""></path></g><g fill="#607f0a"><path d="M16.74 49.46c-1.57 1.36-3.81.16-5.03-1.06-.62.09-1.33.16-1.96.07-.95 2.83-.18 5.99 2.23 8.17.85.77 1.8 1.32 2.82 1.65-.03-.04-.06-.07-.09-.11-2.3-3.11.11-6.78 2.07-8.67zM11.12 38.67l.27.04c.056-.238.137-.471.227-.7a39.803 39.803 0 0 1-4.218-3.521C4.89 35.92 3.348 39.08 4.23 41.83c.34 1.08 1.83 2.35 2.65 3.06-1.02-1.42-1.3-4.06.12-5.48 1.04-1.03 2.73-1.15 4.12-.74zM20.189 42.485l-.069.135c.76 1.47 1.13 3.92-.83 4.93l.1.2c2.28-1.08 5.64-1.8 7.77.43l.18-.18a62.43 62.43 0 0 1 1.07-4.196c-2.814.043-5.572-.433-8.221-1.319z" fill="#607f0a" opacity="1" data-original="#607f0a"></path></g><path fill="#f26a07" d="M57.4 33H44.03l.58-5.83.39.04 13.27 2.36c-.19.74-.49 1.94-.87 3.43z" opacity="1" data-original="#f26a07"></path><path fill="#8ac926" d="M42.42 33h-10.9c.17-.43.38-.83.62-1.2 1.1-1.7 2.84-2.8 4.79-2.8H37c1.14 0 2.21.38 3.12 1.04.16.11.31.23.46.36.78.68 1.42 1.57 1.84 2.6z" opacity="1" data-original="#8ac926" class=""></path><path fill="#f26a07" d="M44.03 33H57.4c-.61 2.4-1.43 5.55-2.24 8.75-.95-.48-2.02-.75-3.16-.75h-.04l-7.71-1.37c-.23-.77-.44-1.55-.64-2.33z" opacity="1" data-original="#f26a07"></path><path fill="#8ac926" d="m46.68 52.53-.01.01C45.54 56.82 41.62 60 37 60h-.07c-1.63 0-3.19-.4-4.57-1.11s-2.59-1.73-3.5-2.94h-.01c.73-2.38.34-5.08-1.27-7.27-.1-.14-.21-.27-.33-.39l.01-.01c.48-2.24 1.16-4.74 1.89-6.92.81-2.44 1.39-4.95 2.05-7.44.08-.32.19-.62.32-.92h10.9c.12.3.23.6.31.92.3 1.13.59 2.26.88 3.38a61.638 61.638 0 0 0 1.18 4.06c.25.76.79 2.27 1.09 3.24A6.966 6.966 0 0 0 45 48c0 1.74.62 3.31 1.68 4.53zM41 49c0-3.31-2.34-7-4-7s-4 3.69-4 7 2.34 4 4 4 4-.69 4-4zM6.88 44.89c-1.02-1.42-1.3-4.06.12-5.48 1.04-1.03 3.02-1.19 4.41-.78-.24 1-.17 2.05.2 2.76-.29.81-.11 1.98.25 2.68.45.87 1.81 1.16 2.93 1.3.76 1.48 2.54 3.19 4.5 2.18l.1.2c-.69.32-1.28.67-1.71.99-.27.2-.58.46-.9.77l-.04-.05c-1.57 1.36-3.81.16-5.03-1.06-.62.09-1.33.16-1.97.07-.53-.06-1.01-.23-1.35-.57-.59-.6-1.19-1.72-1.19-2.61-.12-.12-.23-.25-.32-.4z" opacity="1" data-original="#8ac926" class=""></path><path fill="#ee2d02" d="M41.06 23.79c.38 2.18.02 4.33-.91 6.21l-.03.04C39.21 29.38 38.14 29 37 29h-.07c-1.96 0-3.7 1.11-4.8 2.82-1.49-1.57-3.95-2.54-6.11-2.16.61-2.7-1.33-4.05-4.02-4.66a2.72 2.72 0 0 0-1.24-1.69c2.17-2.39 6.1-4.69 8.19-5.05 3.28-.56 11.13-.19 12.11 5.53z" opacity="1" data-original="#ee2d02"></path><path fill="#9ac2d8" d="M42.42 33h1.61l-.42 4.3c-.29-1.12-.58-2.25-.88-3.38-.08-.32-.19-.62-.31-.92z" opacity="1" data-original="#9ac2d8"></path><path fill="#9ac2d8" d="M62.01 33.08 62 33h-4.6c-.62 2.42-1.43 5.59-2.24 8.76A6.967 6.967 0 0 1 59 48c0 3.87-3.13 7-7 7-.07 0-.14 0-.21-.01-.44 2.4-2.55 4.09-4.92 4.09-.29 0-.58-.03-.87-.08a4.95 4.95 0 0 1-2.22-1l-.33-.38C41.71 59.11 39.45 60 37 60h-.07c-1.63 0-3.16-.39-4.52-1.09A9.93 9.93 0 0 1 28.95 56l-.11-.03A7.746 7.746 0 0 1 26 60a7.832 7.832 0 0 1-4.68 1.54 8.21 8.21 0 0 1-6.52-3.25 7.727 7.727 0 0 1-2.82-1.65c-2.41-2.18-3.18-5.34-2.23-8.17-.53-.06-1.02-.23-1.36-.57-.59-.6-1.19-1.72-1.19-2.61-.12-.12-.23-.25-.32-.4-.82-.71-2.31-1.98-2.65-3.06-1.01-3.15 1.16-6.84 4.32-7.85-.28-.33-.49-.65-.63-.98H2l-.01.08C1.33 37.02 1 41.01 1 45c0 9.94 8.06 18 18 18h26c9.94 0 18-8.06 18-18 0-3.99-.33-7.98-.99-11.92z" opacity="1" data-original="#9ac2d8"></path><path fill="#73bde5" d="M63 45c0 9.94-8.06 18-18 18H19c-5.48 0-10.4-2.45-13.68-6.32C8.47 59.38 12.54 61 17 61h26c9.94 0 18-8.06 18-18 0-3.34-.23-6.69-.7-10H62l.01.08c.66 3.94.99 7.93.99 11.92z" opacity="1" data-original="#73bde5" class=""></path><path fill="#b9deef" d="M22 63h-3c-4.46 0-8.53-1.62-11.68-4.32A17.89 17.89 0 0 1 1 45c0-3.99.33-7.98.99-11.92L2 33h3l-.01.08C4.33 37.02 4 41.01 4 45c0 5.48 2.45 10.4 6.32 13.68C13.47 61.38 17.54 63 22 63z" opacity="1" data-original="#b9deef" class=""></path><path fill="#ffca3a" d="M11 1c5.52 0 10 4.48 10 10s-4.48 10-10 10S1 16.52 1 11 5.48 1 11 1zm-.56 15.83 6.19-8.67-3.26-2.32-3.81 5.33L7.2 9.4l-2.4 3.2z" opacity="1" data-original="#ffca3a" class=""></path><path fill="#8ac926" d="m16.63 8.16-6.19 8.67L4.8 12.6l2.4-3.2 2.36 1.77 3.81-5.33z" opacity="1" data-original="#8ac926" class=""></path><path fill="#7aa822" d="M19.39 47.75c-.69.32-1.28.67-1.71.99-.27.2-.58.46-.9.77l-.04-.05c-1.57 1.36-3.81.16-5.03-1.06-.62.09-1.33.16-1.96.07-.53-.06-1.02-.23-1.36-.57-.59-.6-1.19-1.72-1.19-2.61-.12-.12-.23-.25-.32-.4-.78-1.08-1.12-2.86-.62-4.28.15.48.36.92.62 1.28.09.15.2.28.32.4 0 .89.6 2.01 1.19 2.61.34.34.83.51 1.36.57.63.09 1.34.02 1.96-.07 1.03 1.03 2.79 2.05 4.26 1.52.88.81 2.07 1.28 3.32.63z" opacity="1" data-original="#7aa822" class=""></path><path fill="#8ac926" d="M31.08 14.61c.78-.42 1.68.31 1.42 1.16l-.6 1.98v.33c-1.14-.03-2.17.05-2.95.18-.79.14-1.79.5-2.86 1.03l-.1-.52-1.22-1.67c-.5-.66 0-1.58.78-1.58.06 0 .11 0 .17.01a1 1 0 0 0 1.06-.58l.55-1.24c.28-.65 1.14-.79 1.63-.28l.93.98a.98.98 0 0 0 1.19.2zM58.62 16.55c2.72.48 4.7 2.1 4.22 4.81-.48 2.72-2.09 4.71-4.81 4.23l-.05.03c-.99-2.02-3.15-3.65-5.34-4.03-.37-.07-.76-.1-1.15-.1-1.88 0-3.89.76-5.24 2.04l-.04-.04c-2.72-.48-3.54-2.9-3.06-5.62s2.9-3.55 5.62-3.07a5.003 5.003 0 0 1 5.8-4.05c2.72.49 4.53 3.08 4.05 5.8z" opacity="1" data-original="#8ac926" class=""></path><path fill="#7aa822" d="M43.037 19.302c.009 2.094.946 3.795 3.173 4.188l.04.04c1.35-1.28 3.36-2.04 5.24-2.04.39 0 .78.03 1.15.1 2.19.38 4.35 2.01 5.34 4.03l.05-.03c2.72.48 4.33-1.51 4.81-4.23.328-1.854-.495-3.197-1.918-4.014-5.08 3.013-10.978 3.988-17.885 1.956z" opacity="1" data-original="#7aa822" class=""></path><path fill="#e25b00" d="M57.576 24.918a47.189 47.189 0 0 1-1.43 4.275l2.123.378c.14-.55.22-.85.22-.85.19-1.06-.03-2.13-.51-3.1a6.401 6.401 0 0 0-.403-.703z" opacity="1" data-original="#e25b00"></path><path fill="#e25b00" d="M45.272 39.812 51.96 41H52c1.14 0 2.21.27 3.16.76.81-3.17 1.62-6.34 2.24-8.76.38-1.49.68-2.69.87-3.43l-2.123-.378c-2.103 5.34-5.292 9.695-10.875 10.62zM44.25 39.63 51.96 41a6.976 6.976 0 0 0-6.08 3.6c-.13-.41-.3-.91-.47-1.42-.23-.69-.47-1.38-.62-1.82-.19-.57-.37-1.15-.54-1.73zM46.67 52.52a6.875 6.875 0 0 0 5.12 2.47c-.44 2.4-2.55 4.09-4.92 4.09-.29 0-.58-.03-.87-.08a4.95 4.95 0 0 1-2.22-1l-.33-.38a9.935 9.935 0 0 0 3.22-5.1z" opacity="1" data-original="#e25b00"></path><g fill="#607f0a"><path d="M16.74 49.46c-1.57 1.36-3.81.16-5.03-1.06-.62.09-1.33.16-1.96.07-.95 2.83-.18 5.99 2.23 8.17.85.77 1.8 1.32 2.82 1.65-.03-.04-.06-.07-.09-.11-2.3-3.11.11-6.78 2.07-8.67zM11.12 38.67l.27.04c.056-.238.137-.471.227-.7a39.803 39.803 0 0 1-4.218-3.521C4.89 35.92 3.348 39.08 4.23 41.83c.34 1.08 1.83 2.35 2.65 3.06-1.02-1.42-1.3-4.06.12-5.48 1.04-1.03 2.73-1.15 4.12-.74zM20.189 42.485l-.069.135c.76 1.47 1.13 3.92-.83 4.93l.1.2c2.28-1.08 5.64-1.8 7.77.43l.18-.18a62.43 62.43 0 0 1 1.07-4.196c-2.814.043-5.572-.433-8.221-1.319z" fill="#607f0a" opacity="1" data-original="#607f0a"></path></g><path fill="#ee2d02" d="M14.8 58.29c-.03-.04-.06-.07-.09-.11-2.3-3.11.11-6.78 2.07-8.67.32-.31.63-.57.9-.77.43-.32 1.02-.67 1.71-.99 2.28-1.08 5.64-1.8 7.77.43.15.15.29.32.42.5 1.62 2.19 2 4.9 1.26 7.29A7.746 7.746 0 0 1 26 60a7.832 7.832 0 0 1-4.68 1.54 8.21 8.21 0 0 1-6.52-3.25z" opacity="1" data-original="#ee2d02"></path><path fill="#c92206" d="M28.84 55.97A7.746 7.746 0 0 1 26 60a7.832 7.832 0 0 1-4.68 1.54 8.21 8.21 0 0 1-6.52-3.25c-.03-.04-.06-.07-.09-.11-1.31-1.78-1.09-3.74-.29-5.44.08.15.18.29.29.44.03.04.06.07.09.11a8.21 8.21 0 0 0 6.52 3.25c1.63 0 3.28-.5 4.68-1.54a7.754 7.754 0 0 0 2.81-3.93c.52 1.61.52 3.33.03 4.9z" opacity="1" data-original="#c92206"></path><path fill="#2a4430" d="M19.57 37.03c-.01.34-.19.66-.49.83-.12-.06-.25-.11-.37-.14-.11-.21-.25-.41-.43-.6a4.04 4.04 0 0 0-.89-.73l-1.31-5.3a.995.995 0 0 1 .73-1.21.992.992 0 0 1 1.21.73l1.52 6.15c.02.09.03.18.03.27z" opacity="1" data-original="#2a4430"></path><path fill="#2a4430" d="m24.45 32.84-3.59 5.94c-.09.14-.21.26-.34.34-.16-.25-.38-.5-.63-.72s-.53-.41-.81-.54c.01-.04.04-.08.06-.12l.43-.71 3.16-5.23c.29-.47.9-.62 1.38-.34.47.29.62.9.34 1.38z" opacity="1" data-original="#2a4430"></path><path fill="#bf6913" d="M58.51 28.59c0 .04-.01.09-.02.13 0 0-.08.3-.22.85-.07.27-.15.6-.25.98l-13.2-2.36a.774.774 0 0 1-.3-.11l.09-.91.09-.9v-.01c.15-.05.31-.06.48-.03zM55.45 40.62c-.1.38-.19.76-.29 1.14-.95-.49-2.02-.76-3.16-.76h-.04c-.95 0-1.85.19-2.67.55l-4.7-.84c-.12-.36-.23-.72-.34-1.08-.1-.34-.19-.68-.29-1.02a.66.66 0 0 1 .28 0l.18.03z" opacity="1" data-original="#bf6913"></path><path fill="#e8f7f9" d="M4.344 45c-2.206 0-2.21 3.4 0 3.4 2.206 0 2.21-3.4 0-3.4zM5.606 48.767c-1.287 0-1.289 2 0 2 1.287 0 1.289-2 0-2z" opacity="1" data-original="#e8f7f9"></path><g fill="#f9e4e1"><path d="M36.812 21.688c-.643 0-.645 1 0 1 .644 0 .645-1 0-1zM48.437 24.688c-.643 0-.645 1 0 1 .644 0 .645-1 0-1zM6.408 3.932c-1.783.74-.637 3.512 1.149 2.771 1.783-.74.637-3.512-1.149-2.771zM4.894 6.319c-.594.246-.212 1.17.383.923.595-.246.213-1.17-.383-.923zM24.375 49.061c-.833 0-.834 1.294 0 1.294.833 0 .834-1.294 0-1.294zM50.25 23.375c-1.287 0-1.289 2 0 2 1.287 0 1.289-2 0-2zM35.312 20.125c-1.287 0-1.289 2 0 2 1.287 0 1.29-2 0-2z" fill="#f9e4e1" opacity="1" data-original="#f9e4e1"></path></g><path fill="#6a4c93" d="M55.16 41.76A6.967 6.967 0 0 1 59 48c0 3.87-3.13 7-7 7-.07 0-.14 0-.21-.01-2.06-.05-3.89-1-5.12-2.47A6.878 6.878 0 0 1 45 48c0-1.24.32-2.39.88-3.4a6.976 6.976 0 0 1 6.08-3.6H52c1.14 0 2.21.27 3.16.76zM53 46c0-1.1-.9-2-2-2s-2 .9-2 2 .9 2 2 2 2-.9 2-2z" opacity="1" data-original="#6a4c93"></path><circle cx="51" cy="46" r="2" fill="#828282" opacity="1" data-original="#828282"></circle><path fill="#efe8f9" d="M55.167 44c-.858 0-.859 1.333 0 1.333.858 0 .859-1.333 0-1.333z" opacity="1" data-original="#efe8f9"></path><path fill="#5c3d99" d="M59 48c0 3.87-3.13 7-7 7-.07 0-.14 0-.21-.01-2.06-.05-3.89-1-5.12-2.47a6.787 6.787 0 0 1-1.61-3.66c.06.09.13.18.2.26a6.875 6.875 0 0 0 5.12 2.47c.07.01.14.01.21.01a6.995 6.995 0 0 0 6.94-7.89A6.955 6.955 0 0 1 59 48z" opacity="1" data-original="#5c3d99"></path><path fill="#8ac926" d="M45 48c0-1.24.32-2.39.88-3.4-.13-.41-.3-.91-.47-1.42-.23-.69-.47-1.38-.62-1.82-.19-.57-.37-1.15-.54-1.73-.55-1.89-1.01-3.81-1.52-5.71-.08-.32-.19-.62-.31-.92a6.908 6.908 0 0 0-1.84-2.6c-.15-.13-.3-.25-.46-.36C39.21 29.38 38.14 29 37 29h-.07c-1.95 0-3.69 1.1-4.79 2.8-.24.37-.45.77-.62 1.2-.13.3-.24.6-.32.92-.66 2.49-1.24 5-2.05 7.44-.73 2.18-1.33 4.4-1.81 6.64l-.18.18c.15.15.29.32.42.5 1.62 2.19 2 4.9 1.26 7.29l.11.03a9.93 9.93 0 0 0 3.46 2.91c1.36.7 2.89 1.09 4.52 1.09H37c2.45 0 4.71-.89 6.45-2.38a9.935 9.935 0 0 0 3.22-5.1A6.878 6.878 0 0 1 45 48zm-8 5c-1.66 0-4-.69-4-4s2.34-7 4-7 4 3.69 4 7-2.34 4-4 4z" opacity="1" data-original="#8ac926" class=""></path><path fill="#7aa822" d="M46.67 52.52a9.935 9.935 0 0 1-3.22 5.1C41.71 59.11 39.45 60 37 60h-.07c-1.63 0-3.16-.39-4.52-1.09A9.93 9.93 0 0 1 28.95 56l-.11-.03c.38-1.23.46-2.54.23-3.82.89 1.15 2.04 2.1 3.34 2.76 1.36.7 2.89 1.09 4.52 1.09H37c2.45 0 4.71-.89 6.45-2.38.88-.75 1.64-1.64 2.21-2.65.27.56.61 1.08 1.01 1.55z" opacity="1" data-original="#7aa822" class=""></path><path fill="#7d5a34" d="M37 42c1.66 0 4 3.69 4 7s-2.34 4-4 4-4-.69-4-4 2.34-7 4-7z" opacity="1" data-original="#7d5a34"></path><path fill="#774d23" d="M41 49c0 3.31-2.34 4-4 4s-4-.69-4-4c0-.53.06-1.08.17-1.61C33.73 49.51 35.6 50 37 50s3.27-.49 3.83-2.61c.11.53.17 1.08.17 1.61z" opacity="1" data-original="#774d23"></path><path fill="#f9dec5" d="M36.479 44.719c-1.287 0-1.289 2 0 2 1.287 0 1.289-2 0-2z" opacity="1" data-original="#f9dec5"></path><path fill="#8ac926" d="M20.75 39.48c.45.87-.1 2.15-.63 3.14.76 1.47 1.13 3.92-.83 4.93s-3.74-.7-4.5-2.18c-1.12-.14-2.48-.43-2.93-1.3-.36-.7-.54-1.87-.25-2.68-.36-.69-.43-1.7-.22-2.68.26-1.11.89-2.18 1.93-2.71 1.69-.87 3.9-.06 4.96 1.12.18.19.32.39.43.6.41.11.82.37 1.18.68.37.33.68.72.86 1.08z" opacity="1" data-original="#8ac926" class=""></path><path fill="#7aa822" d="M20.72 45.27c-.06.92-.45 1.78-1.43 2.28-1.96 1.01-3.74-.7-4.5-2.18-1.12-.14-2.48-.43-2.93-1.3-.36-.7-.54-1.87-.25-2.68-.36-.69-.43-1.7-.22-2.68.17-.73.5-1.43 1-1.98-.21.97-.14 1.97.22 2.66-.29.81-.11 1.98.25 2.68.45.87 1.81 1.16 2.93 1.3.76 1.48 2.54 3.19 4.5 2.18.16-.08.3-.17.43-.28z" opacity="1" data-original="#7aa822" class=""></path><path fill="#73bde5" d="M62.068 33.543a.522.522 0 0 1-.21-.043H2a.5.5 0 0 1 0-1h60.078a.5.5 0 0 1 .493.418c.045.272-.132.571-.404.616a.552.552 0 0 1-.099.009z" opacity="1" data-original="#73bde5" class=""></path><path fill="#c92206" d="M41.18 26.19c-.09 1.34-.45 2.63-1.03 3.81l-.03.04C39.21 29.38 38.14 29 37 29h-.07c-1.96 0-3.7 1.11-4.8 2.82-1.49-1.57-3.95-2.54-6.11-2.16.61-2.7-1.33-4.05-4.02-4.66a2.72 2.72 0 0 0-1.24-1.69c.66-.73 1.5-1.46 2.4-2.13 1.99.5 3.8 1.54 4.14 3.12.18.82.82 1.49 1.66 1.59 1.1.13 2.19.54 3.13 1.14.76.5 1.75.32 2.42-.29 1.02-.92 2.28-1.47 3.66-1.47h.07c1.07 0 2.07.33 2.94.92z" opacity="1" data-original="#c92206"></path></g></svg>